<svg xmlns="http://www.w3.org/2000/svg" viewBox="0 0 96 96" id="message-in-bottle"><g><path fill="#00d7be" d="M84.61,19.56c-7.09,7.09-6.82,6.75-7.4,7.6a7.82,7.82,0,0,0-1.28,4.26l0,8.12a24.27,24.27,0,0,1-7.12,17.29L32.68,93a6.78,6.78,0,0,1-9.59,0L3,72.91a6.78,6.78,0,0,1,0-9.59L39.17,27.14A24.27,24.27,0,0,1,56.46,20l8.12.05A7.59,7.59,0,0,0,70,17.85l6.46-6.46Z"></path><path fill="#00d7be" d="M79.49,14.44c-7.09,7.09-6.82,6.75-7.4,7.6a7.82,7.82,0,0,0-1.28,4.26l0,8.12a24.27,24.27,0,0,1-7.12,17.29L27.56,87.89a6.78,6.78,0,0,1-9.59,0l-15-15a6.78,6.78,0,0,1,0-9.59L39.17,27.14A24.27,24.27,0,0,1,56.46,20l8.12.05A7.59,7.59,0,0,0,70,17.85l6.46-6.46Z"></path><path fill="#8ff5d7" d="M47.62,24.34a1.74,1.74,0,0,0-2.56-1.53,24.33,24.33,0,0,0-5.89,4.33L3,63.32a6.78,6.78,0,0,0,0,9.59l2.56,2.56a6.78,6.78,0,0,1,0-9.59L41.73,29.7a24.35,24.35,0,0,1,5-3.85A1.73,1.73,0,0,0,47.62,24.34Z"></path><path fill="#00fad2" d="M63.14,37.54a2.18,2.18,0,0,0,3.62-1.43c.3-3.48-.05-7,0-9.79a2.16,2.16,0,0,0-2.24-2.24c-2.86.11-6.35-.27-9.88,0a2.18,2.18,0,0,0-1.4,3.67A109.28,109.28,0,0,0,63.14,37.54Z"></path><path fill="#00afaf" d="M84.61,19.56c-7.09,7.09-6.82,6.75-7.4,7.6a7.82,7.82,0,0,0-1.28,4.26l0,8.12a24.27,24.27,0,0,1-7.12,17.29L32.68,93a6.78,6.78,0,0,1-9.59,0L18,87.89a6.78,6.78,0,0,0,9.59,0L63.74,51.71a24.27,24.27,0,0,0,7.12-17.29c0-8.69-.18-9,.35-10.54a7.29,7.29,0,0,1,1.82-3l6.46-6.46Z"></path><rect width="16.12" height="5.51" x="74.42" y="10.76" fill="#c3564d" rx="1.08" transform="rotate(45 82.478 13.524)"></rect><rect width="9.92" height="5.51" x="75.33" y="8.57" fill="#ff834d" rx="1.08" transform="rotate(45 80.285 11.335)"></rect><path fill="#ffa189" d="M94.29,11.56l-5.51,4.36L85.85,13h0L80.08,7.22l4.36-5.51a1.87,1.87,0,0,1,2.79-.16l7.22,7.22A1.87,1.87,0,0,1,94.29,11.56Z"></path><path fill="#ffc998" d="M91.36,8.63,85.85,13h0L80.08,7.22l4.36-5.51a1.87,1.87,0,0,1,2.79-.16l4.29,4.29A1.88,1.88,0,0,1,91.36,8.63Z"></path><path fill="#00969b" d="M77.21,27.16A7.08,7.08,0,0,0,76.33,29c-.28-.14,0,.05-3.37-3.26a1,1,0,1,1,1.42-1.42Z"></path><path fill="#ffe7bb" d="M65,44.47,43.55,61.15,26.87,82.64,13.65,69.41C37.82,50.65,34.78,53.19,36,51.66L51.82,31.24Z"></path><path fill="#ffcea2" d="M42.13,56.31l-.84.66L36,51.68l0,0c-1.11,1.43.26.22-7.62,6.34a2.64,2.64,0,0,0,.54.79l3.89,3.9A3.27,3.27,0,0,1,33.05,67L23.53,79.29l3.34,3.35,11.41-14.7h0l5.27-6.79,1.71-1.33C44.26,58.61,43.23,57.42,42.13,56.31Z"></path><path fill="#ff834d" d="M47.21,61.4l-3.4,3.4a2.63,2.63,0,0,1-3.72,0l-8.6-8.61a2.61,2.61,0,0,1,0-3.71l3.39-3.4a2.63,2.63,0,0,1,3.72,0l8.61,8.61A2.63,2.63,0,0,1,47.21,61.4Z"></path><path fill="#d7514d" d="M33.18,51.78h-9a1,1,0,0,1,0-2h9a1,1,0,1,1,0,2Z"></path><path fill="#d7514d" d="M33.18,51.78a1,1,0,0,1-1-1v-9a1,1,0,0,1,2,0v9A1,1,0,0,1,33.18,51.78Z"></path><polygon fill="#ffbf93" points="43.85 54.34 52.05 42.44 61.01 47.59 47.56 58.04 43.85 54.34"></polygon><path fill="#d7514d" d="M46.21,62.4,44.8,63.81l-7.06-7.06a1,1,0,0,1,0-1.42,1,1,0,0,1,1.41,0Z"></path></g></svg>